# AST/ASF file generated using VICON BodyLanguage
# -----------------------------------------------
:version 1.10
:name VICON
:units
  mass 1.0
  length 0.45
  angle deg
:documentation
   .ast/.asf automatically generated from VICON data using
   VICON BodyBuilder and BodyLanguage model FoxedUp or BRILLIANT.MOD
:root
   order TX TY TZ RX RY RZ
   axis XYZ
   position 0 0 0  
   orientation 0 0 0 
:bonedata
  begin
     id 1 
     name lhipjoint
     direction 0.661853 -0.702389 0.261917 
     length 2.64193 
     axis 0 0 0  XYZ
  end
  begin
     id 2 
     name lfemur
     direction 0.34202 -0.939693 0  
     length 7.01722  
     axis 0 0 20  XYZ
    dof rx ry rz
    limits (-160.0 20.0)
           (-70.0 70.0)
           (-60.0 70.0)
  end
  begin
     id 3 
     name ltibia
     direction 0.34202 -0.939693 0   
     length 8.25008   
     axis 0 0 20   XYZ
    dof rx
    limits (-10.0 170.0)
  end
  begin
     id 4 
     name lfoot
     direction 0.0709916 -0.195048 0.978221   
     length 2.31941   
     axis -90 7.62852e-016 20   XYZ
    dof rx rz
    limits (-45.0 90.0)
           (-70.0 20.0)
  end
  begin
     id 5 
     name ltoes
     direction 1.53586e-011 -4.22017e-011 1   
     length 1.16486   
     axis -90 7.62852e-016 20   XYZ
    dof rx
    limits (-90.0 20.0)
  end
  begin
     id 6 
     name rhipjoint
     direction -0.638185 -0.721362 0.268992   
     length 2.57244  
     axis 0 0 0  XYZ 
  end
  begin
     id 7 
     name rfemur
     direction -0.34202 -0.939693 0   
     length 7.07017   
     axis 0 0 -20   XYZ
    dof rx ry rz
    limits (-160.0 20.0)
           (-70.0 70.0)
           (-70.0 60.0)
  end
  begin
     id 8 
     name rtibia
     direction -0.34202 -0.939693 0   
     length 8.20386   
     axis 0 0 -20   XYZ
    dof rx
    limits (-10.0 170.0)
 end
 begin
     id 9 
     name rfoot
     direction -0.0822429 -0.225961 0.970658   
     length 2.32215  
     axis -90 -7.62852e-016 -20   XYZ
    dof rx rz
    limits (-45.0 90.0)
           (-20.0 70.0)
  end
  begin
     id 10 
     name rtoes
     direction -1.53597e-011 -4.21689e-011 1   
     length 1.16333   
     axis -90 -7.62852e-016 -20   XYZ
    dof rx
    limits (-90.0 20.0)
  end
  begin
     id 11 
     name lowerback
     direction -0.0131557 0.998589 -0.0514484   
     length 2.14993   
     axis 0 0 0   XYZ
    dof rx ry rz
    limits (-20.0 45.0)
           (-30.0 30.0)
           (-30.0 30.0)
  end
  begin
     id 12 
     name upperback
     direction -0.000776481 0.999993 0.00352685   
     length 2.15301   
     axis 0 0 0   XYZ
    dof rx ry rz
    limits (-20.0 45.0)
           (-30.0 30.0)
           (-30.0 30.0)
  end
  begin
     id 13 
     name thorax
     direction 0.00438186 0.999609 0.0276143   
     length 2.15424   
     axis 0 0 0   XYZ
    dof rx ry rz
    limits (-20.0 45.0)
           (-30.0 30.0)
           (-30.0 30.0)
  end
  begin
     id 14 
     name lowerneck
     direction -0.0488006 0.998094 0.0377807   
     length 1.90481   
     axis 0 0 0   XYZ
    dof rx ry rz
    limits (-20.0 45.0)
           (-30.0 30.0)
           (-30.0 30.0)
  end
  begin
     id 15 
     name upperneck
     direction 0.0443769 0.990702 -0.12861   
     length 1.91305   
     axis 0 0 0   XYZ
    dof rx ry rz
    limits (-20.0 45.0)
           (-30.0 30.0)
           (-30.0 30.0)
  end
  begin
     id 16
     name head
     direction 0.0165599 0.998647 -0.0492982  
     length 1.92369  
     axis 0 0 0   XYZ
    dof rx ry rz
    limits (-20.0 45.0)
           (-30.0 30.0)
           (-30.0 30.0)
  end
  begin
     id 17 
     name lclavicle
     direction 0.911936 0.410197 -0.0105506  
     length 3.52622  
     axis 0 0 0   XYZ
    dof ry rz
    limits (-20.0 10.0)
           (0.0 20.0)
  end
  begin
     id 18 
     name lhumerus
     direction 1 -4.48974e-011 -2.48591e-028   
     length 5.47651   
     axis 180 -30 -90   XYZ
    dof rx ry rz
    limits (-60.0 90.0)
           (-90.0 90.0)
           (-90.0 90.0)
  end
  begin
     id 19
     name lradius
     direction 1 -4.48938e-011 -4.40099e-027   
     length 3.09058   
     axis 180 -30 -90   XYZ
    dof rx
    limits (-10.0 170.0)
  end
  begin
     id 20
     name lwrist
     direction 1 -4.49042e-011 -2.99852e-027   
     length 1.54529   
     axis 1.95339e-015 90 90   XYZ
    dof ry
    limits (-180.0 0.0)
 end
  begin
     id 21 
     name lhand
     direction 1 -4.48815e-011 -5.98193e-027   
     length 0.771611   
     axis 3.82337e-015 90 90   XYZ
    dof rx rz
    limits (-90.0 90.0)
           (-45.0 45.0)
  end
  begin
     id 22 
     name lfingers
     direction 1 -4.49034e-011 -1.1993e-026   
     length 0.622093   
     axis 7.64668e-015 90 90   XYZ
    dof rx
    limits (0.0 90.0)
  end
  begin
     id 23
     name lthumb
     direction 0.707107 -6.34867e-011 0.707107   
     length 0.893204   
     axis -90 45 -1.62303e-014   XYZ
    dof rx rz
    limits (-45.0 45.0)
           (-45.0 45.0)
  end
  begin
     id 24 
     name rclavicle
     direction -0.93442 0.355634 -0.0195692   
     length 3.62463  
     axis 0 0 0   XYZ 
    dof ry rz
    limits (-10.0 20.0)
           (-20.0 0.0)
  end
  begin
     id 25 
     name rhumerus
     direction -1 -4.48957e-011 -1.19147e-027  
     length 5.14182   
     axis 180 30 90   XYZ
    dof rx ry rz
    limits (-90.0 60.0)
           (-90.0 90.0)
           (-90.0 90.0)
  end
  begin
     id 26 
     name rradius
     direction -1 -4.48952e-011 -3.81062e-027   
     length 3.35565   
     axis 180 30 90   XYZ
    dof rx
    limits (-10.0 170.0)
  end
  begin
     id 27 
     name rwrist
     direction -1 -4.48973e-011 -2.99621e-027   
     length 1.67782   
     axis 1.95339e-015 -90 -90   XYZ
    dof ry
    limits (-180.0 0.0)
  end
  begin
     id 28
     name rhand
     direction -1 -4.48895e-011 -5.98727e-027   
     length 0.801042   
     axis 3.82337e-015 -90 -90   XYZ
    dof rx rz
    limits (-90.0 90.0)
           (-45.0 45.0)
  end
  begin
     id 29
     name rfingers
     direction -1 -4.49065e-011 -1.19972e-026   
     length 0.645821   
     axis 7.64668e-015 -90 -90   XYZ
    dof rx
    limits (0.0 90.0)
  end
  begin
     id 30
     name rthumb
     direction -0.707107 -6.34957e-011 0.707107   
     length 0.927273   
     axis -90 -45 1.62303e-014   XYZ
    dof rx rz
    limits (-45.0 45.0)
           (-45.0 45.0)
  end
:hierarchy
  begin
    root lhipjoint rhipjoint lowerback
    lhipjoint lfemur
    lfemur ltibia
    ltibia lfoot
    lfoot ltoes
    rhipjoint rfemur
    rfemur rtibia
    rtibia rfoot
    rfoot rtoes
    lowerback upperback
    upperback thorax
    thorax lowerneck lclavicle rclavicle
    lowerneck upperneck
    upperneck head
    lclavicle lhumerus
    lhumerus lradius
    lradius lwrist
    lwrist lhand lthumb
    lhand lfingers
    rclavicle rhumerus
    rhumerus rradius
    rradius rwrist
    rwrist rhand rthumb
    rhand rfingers
  end

#!OML:ASF F:\VICON\USERDATA\INSTALL\rory3\rory3.ASF
:FULLY-SPECIFIED
:DEGREES
42
root 17.1645 17.8537 -13.8719 2.28347 -52.5861 1.855
lowerback 1.81664 1.67867 -1.558
upperback -0.602082 2.19438 -0.317481
thorax -1.68082 1.11018 0.475017
lowerneck -9.60483 -2.61399 -5.35854
upperneck 17.9392 -3.13453 1.88731
head 7.19418 -1.73973 1.21169
rclavicle 9.45097e-014 -8.27441e-015
rhumerus -32.0212 -5.66714 -82.1116
rradius 23.122
rwrist 3.75818
rhand -10.9551 16.675
rfingers 7.12502
rthumb 15.0637 -12.757
lclavicle 9.45097e-014 -8.27441e-015
lhumerus -33.5956 -7.75724 88.1887
lradius 28.5222
lwrist 7.44045
lhand -3.62187 27.2924
lfingers 7.12502
lthumb 22.117 56.0474
rfemur -13.0651 1.72016 21.3053
rtibia 29.3652
rfoot -20.2766 -17.3222
rtoes -8.23674
lfemur -11.5137 -3.10346 -26.3991
ltibia 25.6366
lfoot -19.2595 13.9981
ltoes -15.825
43
root 17.1633 17.8526 -13.8658 2.19313 -52.6527 1.98425
lowerback 1.81633 1.71171 -1.66683
upperback -0.589815 2.23502 -0.362371
thorax -1.67134 1.13116 0.488706
lowerneck -9.70466 -2.62876 -5.28033
upperneck 18.0771 -3.15652 1.84145
head 7.25545 -1.75007 1.18036
rclavicle 3.78056e-014 5.35476e-015
rhumerus -31.9656 -5.61296 -82.2011
rradius 23.1132
rwrist 3.671
rhand -11.0479 16.6429
rfingers 7.12502
rthumb 14.9744 -12.7957
lclavicle 3.78056e-014 5.35476e-015
lhumerus -33.5482 -7.92028 88.2329
lradius 28.6197
lwrist 7.66724
lhand -3.64079 27.3715
lfingers 7.12502
lthumb 22.0989 56.1287
rfemur -13.081 1.75229 21.1999
rtibia 29.3977
rfoot -20.2708 -17.257
rtoes -7.77109
lfemur -11.4787 -3.01562 -26.5069
ltibia 25.5839
lfoot -19.2214 14.015
ltoes -15.8751
44
root 17.1611 17.8528 -13.8574 2.07917 -52.7208 2.15487
lowerback 1.77907 1.7499 -1.79805
upperback -0.573414 2.28293 -0.40386
thorax -1.63816 1.15582 0.519442
lowerneck -9.7018 -2.65922 -5.23696
upperneck 18.1632 -3.20349 1.81548
head 7.28357 -1.77321 1.16015
rclavicle 9.43583e-014 -9.26834e-015
rhumerus -31.9499 -5.42038 -82.3124
rradius 23.2299
rwrist 3.35814
rhand -11.023 16.5575
rfingers 7.12502
rthumb 14.9983 -12.8793
lclavicle 9.43583e-014 -9.26834e-015
lhumerus -33.4727 -8.15227 88.3115
lradius 28.6642
lwrist 7.95673
lhand -3.57909 27.4184
lfingers 7.12502
lthumb 22.1581 56.1685
rfemur -13.091 1.77461 21.0574
rtibia 29.4153
rfoot -20.3447 -17.2066
rtoes -7.91975
lfemur -11.4442 -2.99247 -26.6469
ltibia 25.5343
lfoot -19.2211 14.0717
ltoes -15.9696
45
root 17.1593 17.854 -13.848 2.09151 -52.7399 2.19971
lowerback 1.72719 1.78468 -1.82197
upperback -0.579991 2.32936 -0.430594
thorax -1.61674 1.17897 0.5055
lowerneck -9.63801 -2.70014 -5.17307
upperneck 18.2264 -3.26847 1.77188
head 7.29339 -1.80539 1.12988
rclavicle 2.68845e-014 -3.43525e-015
rhumerus -32.0009 -5.21733 -82.4244
rradius 23.4246
rwrist 3.02561
rhand -10.9535 16.4252
rfingers 7.12502
rthumb 15.0653 -13.0066
lclavicle 2.68845e-014 -3.43525e-015
lhumerus -33.4375 -8.39107 88.3907
lradius 28.7271
lwrist 8.07558
lhand -3.54199 27.4758
lfingers 7.12502
lthumb 22.1937 56.2217
rfemur -13.1125 1.78258 20.9991
rtibia 29.4057
rfoot -20.3908 -17.1725
rtoes -7.96131
lfemur -11.4496 -3.00894 -26.6969
ltibia 25.4967
lfoot -19.2491 14.0375
ltoes -15.623
46
root 17.157 17.8556 -13.8388 2.31649 -52.724 2.01325
lowerback 1.65471 1.79691 -1.70443
upperback -0.594581 2.34993 -0.430972
thorax -1.5867 1.18802 0.441059
lowerneck -9.72699 -2.71308 -5.13607
upperneck 18.4133 -3.29498 1.78767
head 7.37063 -1.81593 1.12481
rclavicle -9.82747e-014 -1.61823e-015
rhumerus -32.0177 -5.16759 -82.5139
rradius 23.5381
rwrist 2.96207
rhand -10.8742 16.4487
rfingers 7.12502
rthumb 15.1416 -12.9774
lclavicle -9.82747e-014 -1.61823e-015
lhumerus -33.4161 -8.40859 88.3571
lradius 28.8449
lwrist 7.98264
lhand -3.61567 27.3998
lfingers 7.12502
lthumb 22.123 56.1541
rfemur -13.141 1.84166 21.0994
rtibia 29.3708
rfoot -20.4122 -17.2003
rtoes -7.58991
lfemur -11.5008 -3.09735 -26.5919
ltibia 25.4775
lfoot -19.2652 14.0888
ltoes -15.4466
47
root 17.1548 17.8564 -13.83 2.47828 -52.7223 1.86551
lowerback 1.62642 1.79486 -1.64377
upperback -0.610375 2.34931 -0.414762
thorax -1.58522 1.18731 0.424456
lowerneck -9.81965 -2.70537 -5.15893
upperneck 18.6605 -3.2874 1.81898
head 7.46864 -1.81378 1.13772
rclavicle 1.66742e-014 -6.52262e-016
rhumerus -32.0517 -4.96803 -82.6198
rradius 23.6477
rwrist 2.77288
rhand -10.8653 16.5159
rfingers 7.12502
rthumb 15.1503 -12.9095
lclavicle 1.66742e-014 -6.52262e-016
lhumerus -33.4488 -8.32258 88.3164
lradius 28.9967
lwrist 7.95773
lhand -3.62102 27.3279
lfingers 7.12502
lthumb 22.1178 56.0828
rfemur -13.1346 1.84223 21.1744
rtibia 29.317
rfoot -20.3954 -17.2157
rtoes -7.93645
lfemur -11.5252 -3.17573 -26.515
ltibia 25.4828
lfoot -19.3169 14.1536
ltoes -15.4621
48
root 17.1539 17.8565 -13.821 2.55459 -52.7579 1.81077
lowerback 1.61025 1.80961 -1.66588
upperback -0.627759 2.36907 -0.388835
thorax -1.59639 1.19772 0.462861
lowerneck -9.82268 -2.70405 -5.18002
upperneck 18.8614 -3.28046 1.78302
head 7.53475 -1.8182 1.12951
rclavicle 1.23124e-013 -1.41634e-015
rhumerus -32.0875 -4.71461 -82.6707
rradius 23.7335
rwrist 2.57577
rhand -10.851 16.5709
rfingers 7.12502
rthumb 15.164 -12.8535
lclavicle 1.23124e-013 -1.41634e-015
lhumerus -33.5082 -8.30081 88.3624
lradius 29.1451
lwrist 8.05492
lhand -3.54148 27.4003
lfingers 7.12502
lthumb 22.1942 56.1462
rfemur -13.1282 1.81931 21.1813
rtibia 29.2709
rfoot -20.4055 -17.1618
rtoes -8.23795
lfemur -11.5315 -3.20201 -26.5047
ltibia 25.4855
lfoot -19.4075 14.1871
ltoes -15.2948
49
root 17.1537 17.8561 -13.8134 2.57222 -52.7498 1.82323
lowerback 1.59103 1.80394 -1.7169
upperback -0.627575 2.36081 -0.385274
thorax -1.58749 1.19406 0.495903
lowerneck -9.86248 -2.68919 -5.19331
upperneck 19.125 -3.25706 1.75503
head 7.62757 -1.81417 1.12359
rclavicle -5.33248e-014 -1.37907e-015
rhumerus -32.1078 -4.60388 -82.6907
rradius 23.8349
rwrist 2.48007
rhand -10.8471 16.5578
rfingers 7.12502
rthumb 15.1678 -12.8663
lclavicle -5.33248e-014 -1.37907e-015
lhumerus -33.4985 -8.28658 88.3767
lradius 29.264
lwrist 8.08576
lhand -3.40971 27.454
lfingers 7.12502
lthumb 22.3207 56.1847
rfemur -13.1366 1.78103 21.1542
rtibia 29.256
rfoot -20.3804 -17.1484
rtoes -8.22909
lfemur -11.5289 -3.24001 -26.533
ltibia 25.4574
lfoot -19.4249 14.2216
ltoes -15.1713
50
root 17.1535 17.857 -13.8061 2.4896 -52.7201 1.92802
lowerback 1.58283 1.77481 -1.79348
upperback -0.598817 2.32017 -0.419822
thorax -1.55415 1.1739 0.50548
lowerneck -10.0007 -2.66403 -5.16901
upperneck 19.4954 -3.22196 1.72342
head 7.77237 -1.80297 1.10998
rclavicle 7.63201e-014 7.67806e-015
rhumerus -32.0416 -4.68024 -82.7225
rradius 23.8423
rwrist 2.58344
rhand -10.9787 16.5385
rfingers 7.12502
rthumb 15.041 -12.8951
lclavicle 7.63201e-014 7.67806e-015
lhumerus -33.4574 -8.28295 88.3503
lradius 29.4
lwrist 8.1959
lhand -3.32687 27.4688
lfingers 7.12502
lthumb 22.4002 56.19
rfemur -13.1298 1.73396 21.0683
rtibia 29.2618
rfoot -20.3338 -17.1781
rtoes -8.02799
lfemur -11.4857 -3.28517 -26.6204
ltibia 25.4141
lfoot -19.4555 14.1686
ltoes -15.0105
51
root 17.1517 17.8577 -13.8 2.41175 -52.7711 2.01589
lowerback 1.59108 1.80429 -1.88067
upperback -0.57022 2.35706 -0.456081
thorax -1.53234 1.19259 0.516209
lowerneck -10.147 -2.66469 -5.1261
upperneck 19.8474 -3.22231 1.68026
head 7.91399 -1.80795 1.08591
rclavicle 9.43295e-015 3.77691e-015
rhumerus -31.96 -4.79749 -82.7567
rradius 23.7804
rwrist 2.64368
rhand -11.0288 16.6695
rfingers 7.12502
rthumb 14.9927 -12.7678
lclavicle 9.43295e-015 3.77691e-015
lhumerus -33.42 -8.44668 88.3741
lradius 29.5584
lwrist 8.49934
lhand -3.24672 27.5261
lfingers 7.12502
lthumb 22.4772 56.2381
rfemur -13.1073 1.78449 20.9937
rtibia 29.2556
rfoot -20.2992 -17.2063
rtoes -8.09682
lfemur -11.4404 -3.23024 -26.6939
ltibia 25.3823
lfoot -19.519 14.0279
ltoes -14.7027
52
root 17.1506 17.8579 -13.7931 2.38538 -52.8324 2.06164
lowerback 1.62905 1.85363 -1.92913
upperback -0.586137 2.42002 -0.487419
thorax -1.57213 1.22465 0.507494
lowerneck -10.213 -2.67858 -5.12457
upperneck 20.2024 -3.24171 1.65062
head 8.04446 -1.82471 1.07209
rclavicle -8.19412e-014 -2.5345e-015
rhumerus -31.9757 -4.70773 -82.8426
rradius 23.811
rwrist 2.44631
rhand -11.072 16.5996
rfingers 7.12502
rthumb 14.9511 -12.8407
lclavicle -8.19412e-014 -2.5345e-015
lhumerus -33.44 -8.52326 88.3719
lradius 29.7247
lwrist 8.73139
lhand -3.18038 27.5195
lfingers 7.12502
lthumb 22.5408 56.2237
rfemur -13.1022 1.85145 20.9457
rtibia 29.247
rfoot -20.2874 -17.2298
rtoes -8.29529
lfemur -11.4161 -3.21749 -26.7388
ltibia 25.3534
lfoot -19.6089 13.9369
ltoes -14.2949
53
root 17.1487 17.8583 -13.7845 2.52586 -52.8562 1.92526
lowerback 1.60734 1.86406 -1.87947
upperback -0.608406 2.43565 -0.467655
thorax -1.58193 1.23232 0.499789
lowerneck -10.1169 -2.68248 -5.16801
upperneck 20.4342 -3.25095 1.64175
head 8.10554 -1.83807 1.0759
rclavicle 1.66948e-014 1.45113e-014
rhumerus -32.0119 -4.41552 -82.9513
rradius 23.8927
rwrist 2.20357
rhand -11.0921 16.4715
rfingers 7.12502
rthumb 14.9318 -12.9703
lclavicle 1.66948e-014 1.45113e-014
lhumerus -33.5163 -8.47604 88.3785
lradius 29.8871
lwrist 8.85517
lhand -3.33915 27.4401
lfingers 7.12502
lthumb 22.3884 56.1628
rfemur -13.0921 1.92155 21.0192
rtibia 29.2167
rfoot -20.3197 -17.2635
rtoes -8.40875
lfemur -11.4233 -3.2961 -26.6623
ltibia 25.349
lfoot -19.6597 14.0286
ltoes -14.016
